<?xml version="1.0" encoding="utf-8"?>
<!-- Generator: Adobe Illustrator 22.1.0, SVG Export Plug-In . SVG Version: 6.00 Build 0)  -->
<svg version="1.1" id="Camada_1" xmlns="http://www.w3.org/2000/svg" xmlns:xlink="http://www.w3.org/1999/xlink" x="0px" y="0px"
	 viewBox="0 0 512 512" style="enable-background:new 0 0 512 512;" xml:space="preserve">
<style type="text/css">
	.st0{fill:#72BC49;}
	.st1{fill:#FFFFFF;stroke:#000000;stroke-miterlimit:10;}
	.st2{fill:#333333;}
</style>
<polygon class="st0" points="76.3,104.3 25.7,101 23,86.3 32.3,69 109.7,68.3 115,74.3 121.7,100.3 133.7,182.3 295.7,184.3 
	303.7,192.3 324.3,216.3 135,213 150.3,359.7 406.3,357 431.7,221 466.3,193 459.7,251.7 435,383 420.3,394.3 119.7,391.7 83,111 
	"/>
<path class="st1" d="M385,22c-58,0-105,47-105,105s47,105,105,105s105-47,105-105S443,22,385,22z M453.7,129.7l-20-8l-7.3-0.7
	l-2.7,59.3L343,183l-2.7-65.3L311,127l2-33.3l47.3-8l2,16.7l16.7,11.3l22-4l9.3-21.3l28.7,2l16,4.7L453.7,129.7z"/>
<g id="shopping_cart_路_ecommerce_路_online_路_shirt_路_buy">
	<path class="st2" d="M336,184c0,4.4,3.6,8,8,8h80c4.4,0,8-3.6,8-8v-53.8l22.1,5.5c4.3,1.1,8.6-1.5,9.7-5.8c0.2-0.6,0.2-1.3,0.2-1.9
		V96c0-3.7-2.5-6.9-6-7.8l-31.9-8c-0.6-0.2-1.3-0.2-1.9-0.2H408c-4.4,0-8,3.6-8,8c0,8.8-7.2,16-16,16s-16-7.2-16-16c0-4.4-3.6-8-8-8
		h-16.2c-0.7,0-1.3,0.1-2,0.2l-31.8,8c-3.6,0.9-6,4.1-6,7.8v32c0,4.4,3.6,8,8,8c0.7,0,1.3-0.1,1.9-0.2l22.1-5.5V184z M320,117.8
		v-15.5l24.8-6.2h8.2c4.4,17.1,21.8,27.4,39,23c11.3-2.9,20.1-11.7,23-23h8.2l24.8,6.2v15.5l-22.1-5.5c-4.3-1.1-8.6,1.5-9.7,5.8
		c-0.2,0.6-0.2,1.3-0.2,1.9v56h-64v-56c0-4.4-3.6-8-8-8c-0.7,0-1.3,0.1-1.9,0.2L320,117.8z"/>
	<path class="st2" d="M384,16c-61.8,0.1-111.9,50.2-112,112c0,16.6,3.8,33,11,48H138.9l-9.4-88.9C128.2,74,117.2,64,104,64H40
		c-6.3,0-12.4,2.5-16.9,7c-5.9,5.8-8.4,14.3-6.5,22.4c3,11.1,13.1,18.8,24.6,18.6h39.6L111,384.1c-22.1,1.2-39,20.1-37.7,42.1
		c1.1,20.7,17.9,37.1,38.7,37.8h40.8c4.4,21.6,25.5,35.6,47.2,31.2c15.7-3.2,28-15.5,31.2-31.2h81.6c4.4,21.6,25.5,35.6,47.2,31.2
		c15.7-3.2,28-15.5,31.2-31.2H424c4.4,0,8-3.6,8-8s-3.6-8-8-8h-32.8c-4.4-21.6-25.5-35.6-47.2-31.2c-15.7,3.2-28,15.5-31.2,31.2
		h-81.6c-4.4-21.6-25.5-35.6-47.2-31.2c-15.7,3.2-28,15.5-31.2,31.2H112c-13.3,0-24-10.7-24-24s10.7-24,24-24h306.8
		c11.5,0,21.3-8.2,23.5-19.4l37.5-194.9c32-52.8,15.1-121.5-37.7-153.5C424.6,21.6,404.5,16,384,16z M352,432c13.3,0,24,10.7,24,24
		s-10.7,24-24,24s-24-10.7-24-24C328,442.8,338.8,432,352,432z M192,432c13.3,0,24,10.7,24,24s-10.7,24-24,24s-24-10.7-24-24
		C168,442.8,178.8,432,192,432z M426.6,377.5c-0.7,3.8-4,6.5-7.8,6.5H127.2L96.7,110.2C95.8,102.1,88.9,96,80.8,96H41.3
		c-4.1,0.2-7.7-2.3-9-6.2c-0.7-2.7,0.2-5.6,2.2-7.5c1.4-1.5,3.4-2.4,5.5-2.3h64c5,0,9.1,3.8,9.6,8.8l10.2,96
		c0.4,4.1,3.8,7.2,7.9,7.2h160.6c4,5.7,8.5,11.1,13.5,16h-171c-2.3,0-4.4,1-5.9,2.6c-1.5,1.7-2.3,3.9-2.1,6.2l14.1,144
		c0.4,4.1,3.9,7.2,8,7.2H408c3.9,0,7.3-2.8,7.9-6.7l21.8-131v-0.1l0.7-4.4c7.2-4,14-8.9,20.2-14.5L426.6,377.5z M288,304v-32h57.8
		l-3.6,32H288z M340.4,320l-3.5,32H288v-32H340.4z M288,256v-32h38.6c7.3,4.4,15.1,8,23.2,10.6l-2.3,21.4H288z M217.8,304l-3.6-32
		H272v32H217.8z M272,320v32h-48.9l-3.5-32H272z M212.5,256l-3.5-32h63v32H212.5z M198.2,272l3.6,32h-50.3l-3.1-32H198.2z
		 M146.7,256l-3.1-32h49.3l3.5,32H146.7z M203.5,320l3.5,32h-50.9l-3.1-32H203.5z M414.6,272l-5.4,32h-51l3.6-32H414.6z M363.6,256
		l1.9-17.7c6.1,1.1,12.3,1.6,18.5,1.7c12.6,0,25.1-2.2,37-6.4l-3.8,22.4H363.6z M406.6,320l-5.4,32H353l3.5-32H406.6z M384,224
		c-53,0-96-43-96-96s43-96,96-96s96,43,96,96C480,181,437,224,384,224z"/>
</g>
</svg>
