<?xml version="1.0" encoding="utf-8"?>
<!-- Generator: Adobe Illustrator 22.1.0, SVG Export Plug-In . SVG Version: 6.00 Build 0)  -->
<svg version="1.1" id="Outline" xmlns="http://www.w3.org/2000/svg" xmlns:xlink="http://www.w3.org/1999/xlink" x="0px" y="0px"
	 viewBox="0 0 512 512" style="enable-background:new 0 0 512 512;" xml:space="preserve">
<style type="text/css">
	.st0{fill:#FFFFFF;}
	.st1{fill:#72BC49;}
	.st2{fill:#333333;}
</style>
<polygon class="st0" points="111,54 42,57 26,75 26,462 39,483 460,490 489,470 487,79 463,53 407,56 401,65 399,95 384,108 367,92 
	365,54 272,58 273,94 261,104 246,102 242,83 234,56 145,58 145,92 132,102 120,99 111,88 "/>
<rect x="166" y="224" class="st1" width="35" height="31"/>
<rect x="166" y="306" class="st1" width="35" height="31"/>
<rect x="86" y="306" class="st1" width="35" height="31"/>
<rect x="86" y="385.5" class="st1" width="35" height="31"/>
<rect x="167.5" y="385.5" class="st1" width="35" height="31"/>
<rect x="246.5" y="385.5" class="st1" width="35" height="31"/>
<rect x="327.5" y="385.5" class="st1" width="35" height="31"/>
<rect x="406.5" y="385.5" class="st1" width="35" height="31"/>
<rect x="406.5" y="303" class="st1" width="35" height="31"/>
<rect x="406.5" y="224.5" class="st1" width="35" height="31"/>
<path class="st2" d="M456,48h-48v-8c0-13.3-10.7-24-24-24s-24,10.7-24,24v8h-80v-8c0-13.3-10.7-24-24-24c-13.3,0-24,10.7-24,24v8
	h-80v-8c0-13.3-10.7-24-24-24s-24,10.7-24,24v8H56c-22.1,0-40,17.9-40,40v368c0,22.1,17.9,40,40,40h400c22.1,0,40-17.9,40-40V88
	C496,65.9,478.1,48,456,48z M376,40c0-4.4,3.6-8,8-8s8,3.6,8,8v48c0,4.4-3.6,8-8,8s-8-3.6-8-8V40z M248,40c0-4.4,3.6-8,8-8
	s8,3.6,8,8v48c0,4.4-3.6,8-8,8s-8-3.6-8-8V40z M120,40c0-4.4,3.6-8,8-8c4.4,0,8,3.6,8,8v48c0,4.4-3.6,8-8,8c-4.4,0-8-3.6-8-8V40z
	 M56,64h48v24c0,13.3,10.7,24,24,24s24-10.7,24-24V64h80v24c0,13.3,10.7,24,24,24c13.3,0,24-10.7,24-24V64h80v24
	c0,13.3,10.7,24,24,24s24-10.7,24-24V64h48c13.2,0,24,10.8,24,24v56H32V88C32,74.8,42.8,64,56,64z M456,480H56
	c-13.2,0-24-10.8-24-24V160h448v296C480,469.2,469.2,480,456,480z"/>
<path class="st2" d="M440,216h-32c-4.4,0-8,3.6-8,8v32c0,4.4,3.6,8,8,8h32c4.4,0,8-3.6,8-8v-32C448,219.6,444.4,216,440,216z
	 M432,248h-16v-16h16V248z"/>
<path class="st2" d="M280,376h-32c-4.4,0-8,3.6-8,8v32c0,4.4,3.6,8,8,8h32c4.4,0,8-3.6,8-8v-32C288,379.6,284.4,376,280,376z
	 M272,408h-16v-16h16V408z"/>
<path class="st2" d="M200,216h-32c-4.4,0-8,3.6-8,8v32c0,4.4,3.6,8,8,8h32c4.4,0,8-3.6,8-8v-32C208,219.6,204.4,216,200,216z
	 M192,248h-16v-16h16V248z"/>
<path class="st2" d="M120,296H88c-4.4,0-8,3.6-8,8v32c0,4.4,3.6,8,8,8h32c4.4,0,8-3.6,8-8v-32C128,299.6,124.4,296,120,296z
	 M112,328H96v-16h16V328z"/>
<path class="st2" d="M200,296h-32c-4.4,0-8,3.6-8,8v32c0,4.4,3.6,8,8,8h32c4.4,0,8-3.6,8-8v-32C208,299.6,204.4,296,200,296z
	 M192,328h-16v-16h16V328z"/>
<path class="st2" d="M120,376H88c-4.4,0-8,3.6-8,8v32c0,4.4,3.6,8,8,8h32c4.4,0,8-3.6,8-8v-32C128,379.6,124.4,376,120,376z
	 M112,408H96v-16h16V408z"/>
<path class="st2" d="M200,376h-32c-4.4,0-8,3.6-8,8v32c0,4.4,3.6,8,8,8h32c4.4,0,8-3.6,8-8v-32C208,379.6,204.4,376,200,376z
	 M192,408h-16v-16h16V408z"/>
<path class="st2" d="M440,296h-32c-4.4,0-8,3.6-8,8v32c0,4.4,3.6,8,8,8h32c4.4,0,8-3.6,8-8v-32C448,299.6,444.4,296,440,296z
	 M432,328h-16v-16h16V328z"/>
<path class="st2" d="M440,376h-32c-4.4,0-8,3.6-8,8v32c0,4.4,3.6,8,8,8h32c4.4,0,8-3.6,8-8v-32C448,379.6,444.4,376,440,376z
	 M432,408h-16v-16h16V408z"/>
<path class="st2" d="M360,376h-32c-4.4,0-8,3.6-8,8v32c0,4.4,3.6,8,8,8h32c4.4,0,8-3.6,8-8v-32C368,379.6,364.4,376,360,376z
	 M352,408h-16v-16h16V408z"/>
<polygon class="st1" points="302,206 284,248 240,254 274,291 265,330 305,318 340,332 338,287 360,255 327,248 308,216 "/>
<path class="st2" d="M369.2,249l-40-6.1l-18-38.3c-1.9-4-6.6-5.7-10.6-3.8c-1.7,0.8-3,2.2-3.8,3.8l-18,38.3l-40,6.1
	c-4.4,0.7-7.4,4.7-6.7,9.1c0.3,1.7,1,3.2,2.2,4.4l29.2,29.9l-6.9,42.3c-0.7,4.4,2.3,8.5,6.6,9.2c1.8,0.3,3.6,0,5.1-0.9l35.7-19.7
	l35.7,19.7c3.9,2.1,8.7,0.7,10.9-3.1c0.9-1.6,1.2-3.4,0.9-5.2l-6.9-42.3l29.2-29.9c3.1-3.2,3-8.2-0.1-11.3
	C372.4,250,370.9,249.2,369.2,249L369.2,249z M330.3,284.1c-1.8,1.8-2.6,4.4-2.2,6.9L333,321l-25.1-13.9c-2.4-1.3-5.3-1.3-7.7,0
	L275,321l4.9-30.1c0.4-2.5-0.4-5.1-2.2-6.9l-21.1-21.7l28.8-4.4c2.6-0.4,4.9-2.1,6-4.5l12.5-26.7l12.5,26.7c1.1,2.4,3.4,4.1,6,4.5
	l28.8,4.4L330.3,284.1z"/>
</svg>
