<?xml version="1.0" encoding="utf-8"?>
<!-- Generator: Adobe Illustrator 22.1.0, SVG Export Plug-In . SVG Version: 6.00 Build 0)  -->
<svg version="1.1" id="Capa_1" xmlns="http://www.w3.org/2000/svg" xmlns:xlink="http://www.w3.org/1999/xlink" x="0px" y="0px"
	 viewBox="0 0 512 512" style="enable-background:new 0 0 512 512;" xml:space="preserve">
<style type="text/css">
	.st0{fill:#72BC49;stroke:#000000;stroke-miterlimit:10;}
	.st1{fill:#333333;}
</style>
<path class="st0" d="M486,412l1-284l13-22l5-30l-7-39l-145-2l-6,63l15,23l3,27l-219,2l2-25l16-34l-8-52L16,37L4,89l21,35l-2,292
	l-12,7l-11,7.9L6,475l495-1l-1-49L486,412z M308,425l-103-2V298l32-25l24-6l27,9l13,20l10,32L308,425z"/>
<g>
	<g>
		<path class="st1" d="M509.8,110.9c1.4-1.6,2.2-3.6,2.2-5.7V47.9c0.3-9.7-7.4-17.8-17.1-18.1H358.4c-9.7,0.3-17.3,8.4-17.1,18.1
			v57.2c0,2.1,0.8,4.1,2.2,5.7l14.9,16.7v13.3H153.6v-13.3l14.9-16.7c1.4-1.6,2.2-3.6,2.2-5.7V47.9c0.3-9.7-7.4-17.8-17.1-18.1H17.1
			C7.4,30.2-0.3,38.3,0,47.9v57.2c0,2.1,0.8,4.1,2.2,5.7l14.9,16.7v286.3c-9.4,0-17.1,7.6-17.1,17.1v42.7c0,4.7,3.8,8.5,8.5,8.5
			c0,0,0,0,0,0h494.9c4.7,0,8.5-3.8,8.5-8.5c0,0,0,0,0,0v-42.7c0-9.4-7.6-17.1-17.1-17.1V127.5L509.8,110.9z M213.3,157.9v17.1
			h-25.6c-4.7,0-8.5,3.8-8.5,8.5c0,4.7,3.8,8.5,8.5,8.5h76.8v17.1h-59.7c-4.7,0-8.5,3.8-8.5,8.5s3.8,8.5,8.5,8.5h119.5
			c4.7,0,8.5-3.8,8.5-8.5s-3.8-8.5-8.5-8.5h-42.7V192h25.6c4.7,0,8.5-3.8,8.5-8.5c0-4.7-3.8-8.5-8.5-8.5h-76.8v-17.1h128v256h-42.7
			v-93.3c0-33-26.7-59.7-59.7-59.7s-59.7,26.7-59.7,59.7v93.3h-42.7v-256L213.3,157.9L213.3,157.9z M230.4,345.6v8.5
			c0,4.7,3.8,8.5,8.5,8.5s8.5-3.8,8.5-8.5v-8.5h17.1v8.5c0,4.7,3.8,8.5,8.5,8.5c4.7,0,8.5-3.8,8.5-8.5v-8.5h17.1v68.3h-85.3v-68.3
			H230.4z M213.3,328.5v-8c0-13.4,6.4-25.9,17.1-33.9v41.9H213.3z M247.5,328.5v-49.8c5.6-1.1,11.4-1.1,17.1,0v49.8L247.5,328.5
			L247.5,328.5z M281.6,328.5v-41.9c10.7,8,17,20.6,17.1,33.9v8H281.6z M17.1,47.9c0-0.6,0.2-1,0.1-1l17,0V64c0,4.7,3.8,8.5,8.5,8.5
			s8.5-3.8,8.5-8.5V46.9l25.6,0V64c0,4.7,3.8,8.5,8.5,8.5s8.5-3.8,8.5-8.5V46.9l25.6,0V64c0,4.7,3.8,8.5,8.5,8.5s8.5-3.8,8.5-8.5
			V46.9l16.7,0c0.3,0.3,0.4,0.7,0.4,1.1v54l-11.9,13.3H28.9l-11.9-13.3C17.1,101.9,17.1,47.9,17.1,47.9z M136.5,132.8v281.1H34.1
			V132.8H136.5z M494.9,465.1H17.1v-34.1h13c1.3,0.3,2.7,0.5,4,0.5h443.7c1.4,0,2.7-0.2,4-0.5h13L494.9,465.1L494.9,465.1z
			 M375.5,413.9V132.8h102.4l0,281.1H375.5z M483.1,115.2H370.3l-11.9-13.3v-54c0-0.6,0.2-1,0.1-1l17,0V64c0,4.7,3.8,8.5,8.5,8.5
			s8.5-3.8,8.5-8.5V46.9l25.6,0V64c0,4.7,3.8,8.5,8.5,8.5s8.5-3.8,8.5-8.5V46.9l25.6,0V64c0,4.7,3.8,8.5,8.5,8.5s8.5-3.8,8.5-8.5
			V46.9l16.7,0c0.3,0.3,0.4,0.7,0.4,1.1v54L483.1,115.2z"/>
	</g>
</g>
<g>
	<g>
		<path class="st1" d="M85.3,192.5c-14.1,0-25.6,11.5-25.6,25.6v59.7c0,4.7,3.8,8.5,8.5,8.5c0,0,0,0,0,0h34.1c4.7,0,8.5-3.8,8.5-8.5
			c0,0,0,0,0,0v-59.7C110.9,204,99.5,192.5,85.3,192.5z M93.9,269.3H76.8v-51.2c0-4.7,3.8-8.5,8.5-8.5s8.5,3.8,8.5,8.5L93.9,269.3
			L93.9,269.3z"/>
	</g>
</g>
<g>
	<g>
		<path class="st1" d="M426.7,192.5c-14.1,0-25.6,11.5-25.6,25.6v59.7c0,4.7,3.8,8.5,8.5,8.5c0,0,0,0,0,0h34.1
			c4.7,0,8.5-3.8,8.5-8.5c0,0,0,0,0,0v-59.7C452.3,204,440.8,192.5,426.7,192.5z M435.2,269.3h-17.1v-51.2c0-4.7,3.8-8.5,8.5-8.5
			s8.5,3.8,8.5,8.5V269.3z"/>
	</g>
</g>
<g>
	<g>
		<path class="st1" d="M110.9,354.1H76.8v-17.1h34.1c4.7,0,8.5-3.8,8.5-8.5s-3.8-8.5-8.5-8.5H59.7c-4.7,0-8.5,3.8-8.5,8.5
			s3.8,8.5,8.5,8.5v17.1c-4.7,0-8.5,3.8-8.5,8.5c0,4.7,3.8,8.5,8.5,8.5h34.1v17.1c0,4.7,3.8,8.5,8.5,8.5s8.5-3.8,8.5-8.5v-17.1
			c4.7,0,8.5-3.8,8.5-8.5C119.5,358,115.7,354.1,110.9,354.1z"/>
	</g>
</g>
<g>
	<g>
		<path class="st1" d="M452.3,354.1h-34.1v-17.1h34.1c4.7,0,8.5-3.8,8.5-8.5s-3.8-8.5-8.5-8.5h-51.2c-4.7,0-8.5,3.8-8.5,8.5
			s3.8,8.5,8.5,8.5v17.1c-4.7,0-8.5,3.8-8.5,8.5c0,4.7,3.8,8.5,8.5,8.5h34.1v17.1c0,4.7,3.8,8.5,8.5,8.5s8.5-3.8,8.5-8.5v-17.1
			c4.7,0,8.5-3.8,8.5-8.5C460.8,358,457,354.1,452.3,354.1z"/>
	</g>
</g>
</svg>
