<?xml version="1.0" encoding="utf-8"?>
<!-- Generator: Adobe Illustrator 22.1.0, SVG Export Plug-In . SVG Version: 6.00 Build 0)  -->
<svg version="1.1" id="Capa_1" xmlns="http://www.w3.org/2000/svg" xmlns:xlink="http://www.w3.org/1999/xlink" x="0px" y="0px"
	 viewBox="0 0 512 512" style="enable-background:new 0 0 512 512;" xml:space="preserve">
<style type="text/css">
	.st0{fill:#FFFFFF;}
	.st1{fill:#333333;}
</style>
<path class="st0" d="M476,460l-5-23l-12-10l-6-29l-10-1l-15-141l11-10l6-21l14-4l18-32l24-32L251,11L13,162l11,16l22,39l21,5l-1,18
	l19,16L64,397l-9,8l-4,24l-13,10l-7,29l-19,4l-4,32l492-4l-4-29L476,460z M291,431h-68V323h68V431z"/>
<g>
	<g>
		<path class="st1" d="M486.4,459.5V451c-0.1-10.8-6.9-20.4-17.1-24v-10.2c0-11.1-7.3-20.9-17.9-24.3l-15.4-131.2
			c9.8-3.8,16.2-13.3,16.2-23.8v-8.5h8.5c3.2,0,6.2-1.8,7.6-4.7l16.5-32.9l24.6-24.6c3.3-3.3,3.3-8.7,0-12.1c-0.5-0.5-1-0.9-1.6-1.3
			L260.4,2.5c-2.7-1.7-6.2-1.7-8.9,0L4.1,153.6c-4,2.4-5.3,7.7-2.9,11.7c0.4,0.6,0.8,1.1,1.3,1.6l24.6,24.6l16.5,32.9
			c1.4,2.9,4.4,4.7,7.6,4.7h8.5v8.5c0,10.5,6.5,19.9,16.2,23.8L60.5,392.6c-10.6,3.3-17.8,13.2-17.9,24.3V427
			c-10.2,3.6-17,13.2-17.1,24v8.5C11.5,459.5,0,471,0,485.1v17.1c0,4.7,3.8,8.5,8.5,8.5c0,0,0,0,0,0h494.9c4.7,0,8.5-3.8,8.5-8.5
			c0,0,0,0,0,0v-17.1C512,471,500.5,459.5,486.4,459.5z M443.7,408.3c4.7,0,8.5,3.8,8.5,8.5v8.5H349.9v-17.1L443.7,408.3
			L443.7,408.3z M334.9,288.8c-4.9-5.5-11.8-8.6-19.1-8.5H196.3c-14.1-0.1-25.5,11.3-25.6,25.4c0,7.3,3.1,14.3,8.5,19.1v66.4h-18
			l-15.3-129.8c9.8-3.8,16.2-13.3,16.2-23.8v-8.5h187.7v8.5c0,10.5,6.5,19.9,16.2,23.8l-15.3,129.8h-18v-66.4
			C343.3,315.5,344.2,299.4,334.9,288.8z M196.3,314.4c-4.7,0-8.5-3.8-8.5-8.5s3.8-8.5,8.5-8.5h119.5c4.7,0,8.5,3.8,8.5,8.5
			s-3.8,8.5-8.5,8.5H196.3z M281.6,331.5v93.9h-51.2v-93.9H281.6z M196.3,391.2v-59.7h17.1v59.7H196.3z M213.3,408.3v17.1h-34.1
			v-17.1H213.3z M315.7,331.5v59.7h-17.1v-59.7H315.7z M298.7,408.3h34.1v17.1h-34.1V408.3z M426.7,246.2h-51.2
			c-4.7,0-8.5-3.8-8.5-8.5v-8.5h68.3v8.5C435.2,242.4,431.4,246.2,426.7,246.2z M434.1,391.2h-24.5v-128h9.5L434.1,391.2z
			 M392.5,263.2v128H368l15.1-128H392.5z M35.4,175.6l-13.2-13.2L256,19.8l233.8,142.6l-13.2,13.2l-216.1-133
			c-2.7-1.7-6.2-1.7-8.9,0L35.4,175.6z M447.7,177.9H64.3L256,59.9L447.7,177.9z M56.5,212L47.9,195h416.1l-8.5,17.1H56.5z
			 M136.5,246.2H85.3c-4.7,0-8.5-3.8-8.5-8.5v-8.5h68.3v8.5C145.1,242.4,141.2,246.2,136.5,246.2z M144,391.2h-24.5v-128h9.5
			L144,391.2z M102.4,263.2v128H77.9l15.1-128H102.4z M59.7,416.8c0-4.7,3.8-8.5,8.5-8.5h93.9v17.1H59.7L59.7,416.8L59.7,416.8z
			 M494.9,493.6H17.1v-8.5c0-4.7,3.8-8.5,8.5-8.5h179.2c4.7,0,8.5-3.8,8.5-8.5s-3.8-8.5-8.5-8.5H42.7V451c0.1-4.8,4.1-8.6,8.9-8.5
			h408.9c4.8-0.1,8.8,3.7,8.9,8.5v8.5H307.2c-4.7,0-8.5,3.8-8.5,8.5s3.8,8.5,8.5,8.5h179.2c4.7,0,8.5,3.8,8.5,8.5V493.6z"/>
	</g>
</g>
</svg>
