<?xml version="1.0" encoding="utf-8"?>
<!-- Generator: Adobe Illustrator 22.1.0, SVG Export Plug-In . SVG Version: 6.00 Build 0)  -->
<svg version="1.1" id="Capa_1" xmlns="http://www.w3.org/2000/svg" xmlns:xlink="http://www.w3.org/1999/xlink" x="0px" y="0px"
	 viewBox="0 0 512 512" style="enable-background:new 0 0 512 512;" xml:space="preserve">
<style type="text/css">
	.st0{fill:#72BC49;}
	.st1{fill:#333333;}
</style>
<polygon class="st0" points="123,474 52,343 56,218 132,138 256,21 337,162 428,128 453,188 463,273 439,364 394,425 319,473 
	201,502 128,492 "/>
<g>
	<path class="st1" d="M467.5,159.2l-10.7-53.5L427,117.6c-26.1,10.5-54,20.3-83.1,29.2c-12.8-34.9-32.2-69.6-57.7-103.3L253.3,0
		l-21.6,23.7c-34.5,37.8-73.4,74.5-119,112.3c-36,29.8-61.4,71.5-71.7,117.3c-10.6,47.3-5,95.3,16.1,139L115,512h63.3
		c55.3,0,104.3-8.5,145.5-25.2c39.1-15.9,71.4-39.2,96.1-69.3C471.4,354.6,488.3,262.9,467.5,159.2L467.5,159.2z M416.5,153.9
		c-19.7,39.8-44.4,79.2-73.7,117.7c-30.1,39.5-65.1,78.1-104,114.7c-40.5,38.1-77,66.1-99.4,82.2v-95c0-41.7,13.7-80.9,39.5-113.5
		c25.1-31.6,60.4-54.3,99.3-63.9c15.8-3.9,31.3-8,46.3-12.2l0,0.1l13.7-4c0.1,0,0.3-0.1,0.4-0.1v0
		C365.6,171.8,391.7,163.1,416.5,153.9L416.5,153.9z M70.3,259.9c8.8-39.4,30.7-75.2,61.6-100.8c45.5-37.7,84.5-74.5,119.3-112.3
		l11.2,14.7c23.3,30.8,41,62.2,52.8,93.7c-14.3,4-29,7.9-44.1,11.6c-45.4,11.2-86.4,37.6-115.6,74.4c-30.1,37.9-46,83.6-46,132.2v58
		l-25.3-52.2C66,341.8,61.2,300.5,70.3,259.9z M396.6,398.5c-21.5,26.2-49.8,46.6-84.2,60.5c-37.6,15.3-82.7,23-134.2,23h-6.5
		c22.7-17,53.3-41.7,87.1-73.4c40.2-37.7,76.3-77.6,107.5-118.5c28.8-37.9,53.4-76.7,73.5-115.9
		C456.1,265.1,440.9,344.5,396.6,398.5L396.6,398.5z"/>
</g>
</svg>
