<?xml version="1.0" encoding="utf-8"?>
<!-- Generator: Adobe Illustrator 22.1.0, SVG Export Plug-In . SVG Version: 6.00 Build 0)  -->
<svg version="1.1" id="Layer_1" xmlns="http://www.w3.org/2000/svg" xmlns:xlink="http://www.w3.org/1999/xlink" x="0px" y="0px"
	 viewBox="0 0 512 512" style="enable-background:new 0 0 512 512;" xml:space="preserve">
<style type="text/css">
	.st0{fill:#FFFFFF;}
	.st1{fill:#72BC49;}
	.st2{fill:#333333;}
</style>
<rect x="78.3" y="287" class="st0" width="22" height="74.7"/>
<rect x="307.7" y="289" class="st0" width="23.3" height="72"/>
<rect x="51" y="359.7" class="st0" width="306" height="36.7"/>
<rect x="321" y="394.3" class="st0" width="23.3" height="65.3"/>
<rect x="61.7" y="392.3" class="st0" width="25.3" height="67.3"/>
<rect x="62.3" y="247.7" class="st0" width="281.3" height="39.3"/>
<polygon class="st1" points="397.7,219.7 400.3,125.7 412.3,125 418.3,213.7 439,199.7 459.7,167 460.3,138.3 446.3,114.3 441,101 
	440.3,71.7 427.7,55 396.3,48.3 377,66.3 352.3,62.3 327,68.3 312.3,88.3 305,110.3 293,123.7 280.3,143.7 276.3,168.3 291.7,186.3 
	310.3,196.3 332.3,193.7 342.3,195 362.3,210.3 386.3,217 "/>
<path class="st2" d="M461.7,454.7h-29.8l-3-125.7l24.8-27.6c1.2-1.3,1.8-3,1.8-4.7v-22.8c0-3.9-3.1-7-7-7c-1.5,0-2.9,0.5-4.1,1.3
	l-16.7,12.1l-1.5-61.9c36.2-17.4,51.5-60.8,34.1-97c-3.1-6.6-7.3-12.6-12.2-17.9c9.1-22.1-1.4-47.5-23.5-56.6
	c-18-7.4-38.8-1.9-50.8,13.4c-6.2-2.3-12.7-3.4-19.3-3.4c-31.2,0-56.5,25.2-56.7,56.4c-24.1,10.1-35.6,37.8-25.5,61.9
	c7.4,17.7,24.6,29.1,43.7,29.1c7.7,0,15.3-1.9,22.1-5.5c13.1,16.1,32.6,25.9,53.4,26.7l-5.5,229.2h-34.6V403h6.9c3.9,0,7-3.1,7-7
	v-34c0-3.9-3.1-7-7-7h-20.9v-60h9c3.9,0,7-3.1,7-7c0,0,0,0,0,0v-39.7c0-3.9-3.1-7-7-7H62.2c-3.9,0-7,3.1-7,7V288c0,3.9,3.1,7,7,7h9
	v60H50.3c-3.9,0-7,3.1-7,7v34c0,3.9,3.1,7,7,7h6.9v51.7h-6.9c-3.9,0-7,3.1-7,7s3.1,7,7,7h411.4c3.9,0,7-3.1,7-7
	S465.5,454.7,461.7,454.7L461.7,454.7z M441.5,287.6v6.4l-13.1,14.6l-0.3-11.2L441.5,287.6z M345.8,185.5c-2.2-3.2-6.5-4.1-9.7-1.9
	c-0.1,0.1-0.2,0.1-0.2,0.2c-14.8,10.9-35.7,7.8-46.6-7c-4.2-5.7-6.5-12.7-6.5-19.9c0-14.9,9.9-28,24.3-32.1c3.2-0.9,5.4-4,5.1-7.4
	c-0.1-1.3-0.2-2.6-0.2-3.9c0-23.6,19.1-42.6,42.7-42.7c6.5,0,12.9,1.5,18.8,4.4c3.3,1.6,7.3,0.4,9.2-2.8c8-14.1,25.9-19.1,40.1-11.1
	s19.1,25.9,11.1,40.1c-1.6,2.8-1.1,6.3,1.3,8.6c23.7,22.2,24.9,59.3,2.8,83c-3.5,3.7-7.5,7-11.8,9.7l-1.6-68.8
	c-0.3-8.4-7.4-14.9-15.7-14.6c-8,0.3-14.3,6.7-14.6,14.6l-0.7,30.4l-52.2-29.3c-3.4-1.9-7.6-0.7-9.5,2.7c-1.9,3.4-0.7,7.6,2.7,9.5
	l58.6,33l-0.7,31.4C373.3,210.6,356.2,201,345.8,185.5L345.8,185.5z M407.8,134.2c0-0.7,0.5-1.2,1.2-1.2c0.7,0,1.2,0.5,1.2,1.2
	l3.8,159.9v0l3.8,160.6h-17.7L407.8,134.2z M337.6,454.7h-9V403h9V454.7z M314.6,403v18.8H94.2V403H314.6z M94.2,435.8h220.3v18.8
	H94.2V435.8z M323.6,355h-9v-60h9V355z M108.2,355v-60h192.3v60H108.2z M69.2,255.3h270.4V281H69.2V255.3z M85.2,295h9v60h-9
	L85.2,295z M57.3,369h294.2v20H57.3L57.3,369z M71.2,403h9v51.7h-9L71.2,403z"/>
</svg>
