<?xml version="1.0" encoding="utf-8"?>
<!-- Generator: Adobe Illustrator 22.1.0, SVG Export Plug-In . SVG Version: 6.00 Build 0)  -->
<svg version="1.1" id="Camada_1" xmlns="http://www.w3.org/2000/svg" xmlns:xlink="http://www.w3.org/1999/xlink" x="0px" y="0px"
	 viewBox="0 0 512 512" style="enable-background:new 0 0 512 512;" xml:space="preserve">
<style type="text/css">
	.st0{fill:#FFFFFF;stroke:#000000;stroke-miterlimit:10;}
	.st1{fill:#72BC49;stroke:#000000;stroke-miterlimit:10;}
	.st2{fill:#333333;}
</style>
<polygon class="st0" points="6.3,462.3 93,457 170.3,446.3 283.7,407.7 375.7,387 433,385.7 473,392.3 503.7,401 502.3,504.3 
	8.3,507.7 5,492.3 "/>
<path class="st1" d="M199,171.7l-30,28.7l-28.7-14l7.3,31.3l-63.3,56c0,0-5.3-133.3,108-167.3l1.3-12.7l-72-26.7l-5.3-25.3l-22.7,12
	L31,29.7c0,0,156.7-76,223.3,53.3c0,0,58.7-124,220-52.7l-32,20l-24,3.3l-28-11.3l-1.3,20l-82,39.3c0,0,118,14.7,122.7,172.7l-66-56
	l2.7-28l-26,6.7l-32-24l6.7-18l-12-30.7l-16.7-8L269.7,91h-20L231,103l-4,16.7l-19.3,8l-12,13.3L199,171.7z"/>
<path class="st2" d="M508.6,393.8c-3-1.8-66-37.5-215.3,4.1l-2.5-17.5C283,325.9,279,271,279,215.9v-30.3c11,3.2,23,0.9,31.9-6.3
	l27.2,25.5c2.1,2,5.2,2.5,7.8,1.2l16.6-8l-4.7,20.4c-0.6,2.4,0.2,5,2,6.7l66.4,62.1c2.8,2.6,7.2,2.5,9.9-0.3c1.3-1.4,2-3.2,1.9-5.1
	l-1.5-29.7c-2.8-59.3-35.8-113.1-87.3-142.5c-8-4.6-16.7-8-25.8-10L393,72.8c2.7-1,4.5-3.6,4.5-6.5V53.7l18.6,8.2
	c1.7,0.7,3.6,0.8,5.3,0.1l61-23.3c3.6-1.4,5.4-5.4,4-9c-0.7-1.8-2-3.2-3.8-3.9L455.3,14C400.8-9.4,338-3.4,288.9,30
	c-14.5,9.8-26,23.6-32.9,39.8c-7-16.1-18.4-29.9-32.9-39.8C174-3.4,111.2-9.4,56.7,14L29.4,25.7c-3.6,1.5-5.2,5.6-3.7,9.2
	c0.7,1.7,2.2,3.1,3.9,3.8l61,23.3c1.7,0.7,3.6,0.6,5.3-0.1l18.6-8.2v12.6c0,2.9,1.8,5.5,4.5,6.5l69.6,26.6c-9,2-17.7,5.4-25.8,10
	c-51.6,29.4-84.5,83.2-87.4,142.6L74,281.7c-0.2,3.9,2.8,7.1,6.6,7.3c1.9,0.1,3.8-0.6,5.1-1.9l66.4-62.1c1.8-1.7,2.6-4.3,2-6.7
	l-4.7-20.4l16.6,8c2.6,1.3,5.7,0.8,7.8-1.2l27.2-25.5c9,7.2,20.9,9.5,31.9,6.3v30.3c0,55-3.9,110-11.8,164.5L215,424
	C122.3,457.9,8.4,455,7.2,455c-1.9-0.1-3.7,0.6-5.1,2c-1.4,1.3-2.1,3.1-2.1,5v43c0,3.9,3.1,7,7,7l0,0h498c3.9,0,7-3.1,7-7l0,0V399.8
	C512,397.3,510.7,395,508.6,393.8z M256,96.3c8.8,0,16.8,5.3,20.2,13.4l0,0c4.2,9.8,0.7,21.2-8.2,27c-0.8,0.5-1.7,1-2.6,1.4
	l-0.2,0.1c-5.9,2.6-12.6,2.6-18.4,0l-0.2-0.1c-0.9-0.4-1.8-0.9-2.6-1.4c-8.9-5.8-12.4-17.2-8.3-27v-0.1
	C239.2,101.5,247.2,96.3,256,96.3z M245.8,267.7h20.4c0.6,13.9,1.5,27.9,2.6,41.8h-25.6C244.3,295.6,245.2,281.6,245.8,267.7z
	 M247,211.9h18v4c0,12.6,0.2,25.2,0.6,37.8h-19.2c0.4-12.6,0.6-25.2,0.6-37.8L247,211.9z M270,323.5c1.3,14,2.8,27.9,4.6,41.8h-37.2
	c1.8-13.9,3.3-27.8,4.6-41.8H270z M247,153.1c0.2,0.1,0.4,0.1,0.6,0.1c1,0.2,2,0.4,3,0.6c0.4,0.1,0.7,0.1,1.1,0.2
	c2.8,0.4,5.6,0.4,8.4,0c0.4,0,0.7-0.1,1.1-0.2c1-0.2,2-0.3,3-0.6c0.2-0.1,0.4-0.1,0.6-0.1v44.8h-18L247,153.1z M235.1,382.3
	c0.1-1,0.3-2,0.4-3h41c0.1,1,0.3,2,0.4,3l2.8,19.5c-15.7,4.7-32.3,10.3-49.8,16.7L235.1,382.3z M279,170.7V146
	c5.3-4.4,9.3-10.3,11.4-16.9c12.1,0.9,21.3,11.4,20.4,23.5s-11.4,21.3-23.5,20.4C284.4,172.7,281.6,172,279,170.7L279,170.7z
	 M422.5,252.7l0.6,12.4l-50.8-47.5l7.1-30.7c0.9-3.8-1.5-7.5-5.2-8.4c-1.6-0.4-3.2-0.2-4.6,0.5l-25.4,12.3L320,168.6
	c9.8-17.3,3.7-39.2-13.6-49c-4.5-2.5-9.5-4.1-14.6-4.5c-0.1-1-0.2-2.1-0.4-3.1c17.5-2.7,35.4,0.7,50.8,9.5
	C389.7,148.7,420,198.1,422.5,252.7L422.5,252.7z M296.8,41.6c45.1-30.8,102.9-36.3,153.1-14.7l11.4,4.9l-42.2,16.1l-25.8-11.3
	c-3.5-1.6-7.7,0.1-9.2,3.6c-0.4,0.9-0.6,1.8-0.6,2.8v18.5l-97.3,37.2c-4.8-7.3-12-12.6-20.4-15C271,66.5,281.9,51.7,296.8,41.6z
	 M125.3,37.1c-2-1.3-4.5-1.5-6.6-0.6L92.9,47.9L50.8,31.8l11.4-4.9c50.2-21.6,107.9-16,153.1,14.7c14.8,10,25.8,24.9,31,42
	c-8.4,2.4-15.6,7.7-20.4,15l-97.3-37.2V43C128.5,40.6,127.3,38.4,125.3,37.1z M167.8,191.2l-25.4-12.3c-3.5-1.7-7.7-0.2-9.3,3.3
	c-0.7,1.4-0.9,3.1-0.5,4.6l7.1,30.7L88.9,265l0.6-12.4c2.6-54.6,32.9-104,80.3-131.1c15.4-8.8,33.3-12.2,50.8-9.5
	c-0.2,1-0.3,2-0.4,3.1c-19.8,1.7-34.4,19.1-32.7,38.9c0.4,5.1,2,10.1,4.5,14.6L167.8,191.2z M223.3,173
	c-12.1-0.1-21.9-10.1-21.7-22.3c0.1-11.3,8.8-20.7,20.1-21.7c2.1,6.6,6,12.5,11.4,16.9v24.7C230,172.2,226.7,173,223.3,173
	L223.3,173z M498,498H14v-28.9c27.4,0.2,126.3-1.8,209.8-33.4l0,0c0.4-0.2,0.8-0.3,1.2-0.5c172.8-66.2,255.8-38.6,273-31.1V498z"/>
</svg>
