<?xml version="1.0" encoding="utf-8"?>
<!-- Generator: Adobe Illustrator 22.1.0, SVG Export Plug-In . SVG Version: 6.00 Build 0)  -->
<svg version="1.1" id="Camada_1" xmlns="http://www.w3.org/2000/svg" xmlns:xlink="http://www.w3.org/1999/xlink" x="0px" y="0px"
	 viewBox="0 0 1243.2 984.9" style="enable-background:new 0 0 1243.2 984.9;" xml:space="preserve">
<style type="text/css">
	.st0{fill:#FCFCFC;}
	.st1{fill:#DDDDDD;}
	.st2{fill:#FFFFFF;}
	.st3{opacity:0.3;fill:#72BC49;enable-background:new    ;}
	.st4{clip-path:url(#SVGID_3_);}
	.st5{fill:none;stroke:#FFFFFF;stroke-width:4;stroke-miterlimit:10;}
	.st6{fill:#BFD43B;}
	.st7{fill:#F9BB91;}
	.st8{fill:#333333;}
	.st9{fill:#C92C33;}
	.st10{opacity:0.1;enable-background:new    ;}
	.st11{fill:url(#SVGID_4_);}
	.st12{fill:#72BC49;}
	.st13{fill:none;stroke:#333333;stroke-miterlimit:10;}
	.st14{fill:#9E6F61;}
</style>
<g id="Camada_3">
</g>
<g>
	<g>
		<path id="SVGID_1_" class="st0" d="M1219.8,750.5c-29.9,67.6-90.5,112.8-153.4,142.6c-84.7,40.2-178,56.1-269.9,49.4
			c-16.1-1.2-32.2-3-48.3-5.6c-55.7-8.9-109.9-26.2-161.2-51.5c-14.7-7.3-29.3-15.3-43.6-23.9c-23.7-14.5-46.5-30.7-68-48.7
			c-5.5-4.5-10.7-9.2-16-14c-3.6-3.4-7.3-6.6-10.9-10c-7.7-6.9-15.7-13.5-24.6-18.4c-2.7-1.5-5.5-2.8-8.3-4
			c-28.2-11.8-60.8-7.3-90.2,1.8c-22.4,6.9-44.1,16.5-66.4,23.4c-10,3.1-20,5.4-30.3,7c-22.9,3.2-46.1,1-68.1-6.5l-1.9-0.6
			c-3.1-1.1-6.3-2.3-9.4-3.6l-1.9-0.8c-3-1.3-6-2.7-8.8-4.1l-1.9-1c-3-1.5-6-3.1-8.8-4.9c-1.1-0.6-2.1-1.3-3-1.8
			c-16.3-10-31.2-22.7-44.1-37.6c-0.4-0.4-0.7-0.9-1.2-1.3c-1.8-2.2-3.5-4.3-5.3-6.5c-0.6-0.9-1.3-1.6-1.9-2.5
			c-2.1-2.7-4-5.4-5.9-8.2c-0.3-0.4-0.6-0.9-0.8-1.3c-7.7-11.7-14.1-24.3-18.9-37.6c-0.2-0.4-0.3-0.9-0.4-1.3
			c-1.5-4.3-2.8-8.6-4.1-13c-0.5-1.8-1-3.8-1.5-5.5c-0.1-0.5-0.3-1.1-0.4-1.6c-6.2-26.7-6.8-54.6-6.8-82.4c0-3.2,0-6.4,0-9.6
			c0.2-44.7,0.8-90.4,6.8-134.6c0-0.3,0.1-0.6,0.1-1c2.1-14.8,4.8-29.7,8.2-44.2c3.6-15.3,8.2-30.2,13.9-44.7
			c13.9-35.7,34.1-68.3,56.5-98.5c56.2-75.8,130.2-139.6,216.8-163.4c93.3-25.5,197-0.9,272.3,64.8c23,20,43.6,43.7,69.3,59.1
			c54.7,26.8,142.6-22.2,263.6,27.7c1.8,0.8,3.5,1.4,5.3,2.2c113.3,47.5,210.7,141.9,261.4,263.3c1.4,3.2,2.6,6.4,3.9,9.7
			C1242.3,584.7,1253.1,675.3,1219.8,750.5z"/>
	</g>
</g>
<ellipse class="st1" cx="798.2" cy="936.4" rx="283.4" ry="25.9"/>
<title>Destination</title>
<g>
	<path class="st1" d="M689.3,235.4l-332.5,0.8c-7.5,0-13.7,6.1-13.6,13.7l1.5,621.9c0,7.5,6.2,13.6,13.7,13.6l332.5-0.8
		c7.5,0,13.7-6.1,13.6-13.7l0,0L703,249C702.9,241.5,696.8,235.4,689.3,235.4z"/>
</g>
<path class="st2" d="M361.6,244.7l322.8-0.8c7.5,0,13.7,6.1,13.7,13.6l1.5,604.7c0,7.5-6.1,13.7-13.6,13.7l-322.8,0.8
	c-7.5,0-13.7-6.1-13.7-13.6L348,258.4C348,250.9,354.1,244.7,361.6,244.7z"/>
<path class="st3" d="M611,260c-2.1,13.9-13.9,24.1-27.9,24.2l-120.9,0.3c-14,0-25.9-10.2-28-24.1l-64.1,0.2c-7.3,0-13.3,6-13.3,13.3
	l1.4,573.7c0,7.3,6,13.3,13.3,13.3l306-0.7c7.3,0,13.3-6,13.3-13.3l-1.4-573.7c0-7.3-6-13.3-13.3-13.3l0,0L611,260z"/>
<g>
	<g>
		<g>
			<defs>
				<path id="SVGID_2_" d="M611,260c-2.1,13.9-13.9,24.1-27.9,24.2l-120.9,0.3c-14,0-25.9-10.2-28-24.1l-64.1,0.2
					c-7.3,0-13.3,6-13.3,13.3l1.4,573.7c0,7.3,6,13.3,13.3,13.3l306-0.7c7.3,0,13.3-6,13.3-13.3l-1.4-573.7c0-7.3-6-13.3-13.3-13.3
					l0,0L611,260z"/>
			</defs>
			<clipPath id="SVGID_3_">
				<use xlink:href="#SVGID_2_"  style="overflow:visible;"/>
			</clipPath>
			<g class="st4">
				<polyline class="st5" points="266.5,299 742.6,688.9 748.8,369.8 211.1,350.8 296,432.2 834.6,473.6 273.6,615 781.6,779.8 
					779.7,842.3 255.5,811.2 271.4,968.7 501.6,948.2 625,186.3 				"/>
			</g>
		</g>
	</g>
</g>
<path class="st1" d="M482.9,268.3l74-1.1c1.1,0,2,0.9,2,2v0.9c0,1.1-0.9,2-2,2l-74,1.1c-1.1,0-2-0.9-2-2v-0.9
	C480.9,269.2,481.8,268.3,482.9,268.3z"/>
<circle class="st1" cx="575.5" cy="268.9" r="2.9"/>
<rect x="684.4" y="415.5" transform="matrix(0.9992 -3.875278e-02 3.875278e-02 0.9992 -16.1327 27.2742)" class="st6" width="22.2" height="28.6"/>
<path class="st7" d="M605.8,515.2c0,0-30.8-14.7-30.3-2s31,21.1,31,21.1L605.8,515.2z"/>
<path class="st8" d="M622.7,622.7c0,0-14.5,35.5-19.9,61.2s-13.5,60.9-3,86s40.4,98.6,40.7,106.5s-2.6,16,3.8,15.8
	s40.9-11.1,42.3-16s-11.8-17-11.8-17L642.2,757l34-66.5l24.5,99.2l4.8,123.8c0,0,23.6-7.3,27-1c0,0,10.6-14.7,11.9-21.1
	s-5-128.6-5-128.6s21.6-139.2,4.2-138.5S657.7,583.1,622.7,622.7z"/>
<path class="st8" d="M644,885.8c0,0-16.1,35.6-17.6,37.3s-12,18-4.1,17.6s26.7-9,40.5-22.2s32-36.2,30.3-37.7s-12.9-5.9-12.9-5.9
	L644,885.8z"/>
<path class="st8" d="M708.4,905.5c0,0-1,15.9-3.9,22.4s-2.6,16,5.4,15.7s28.5-4.3,28.5-4.3s1.2-9.6-0.4-11.1s-8.7-18.7-5.7-23.6
	S708.4,905.5,708.4,905.5z"/>
<path class="st7" d="M720.1,388.3c0,0,16.9,26.4,23.5,32.5s-12,19.5-12,19.5l-33.2,4.5c0,0,0.4-30.2-1.3-33.3
	S720.1,388.3,720.1,388.3z"/>
<path class="st6" d="M691.3,422.8c0,0,6.8,12.5,13.2,12.2s39.2-14.2,40.6-19.1s10.9,34.6,10.9,34.6L675.6,592L656,578.5l9.5-83
	l7.8-44.8L691.3,422.8z"/>
<path class="st9" d="M748,549.4c-3.2,6.7-5.2,13.7-4.9,20.9c0,0.3,0,0.6,0.1,1c0.8,14.7,6.2,31.7,8.1,44c1.4,8.9,1,15.3-4.2,16.9
	c-12.6,3.7,1.8,6.3-46.8,22.5s-57.2,2.2-57.3-1s6.9-27.3,5.2-28.8s-23.1,20-29.5,17c-6.5-2.9-0.7-19.1-0.7-19.1s14.6-34,14.3-41.9
	s22.1-45.4,22.1-45.4l15.2-99.2c0,0,5.9-12.9,13.7-14.8s14.4,2.6,14.4,2.6l-13.2,29.2l-13.9,51.4l2.3,19c0,0,16.2-34,26.8-47.1
	s33.3-44.2,33.3-44.2s5.3-17.8,1.3-23.2c-4-5.3,16.6-6.1,25.4,15.8c4.7,11.6,12.2,28.9,17,45.1c4.2,14.3,6.2,27.6,2,35.3
	C772.3,517,756.2,532.3,748,549.4z"/>
<path class="st10" d="M778.7,505.3c-6.4,11.7-22.5,27-30.7,44.1c-2.1-7.7-4.8-15.7-4.8-15.7s-10-53.7,19.6-67.5
	c4.9-0.5,9.8,0.9,13.8,3.9C780.9,484.3,782.9,497.7,778.7,505.3z"/>
<path class="st9" d="M660.9,501.9l-25.2,7.3l-34.9,1.4l-3.6,30.3l57.4,4.1C654.7,545.1,669,504.8,660.9,501.9z"/>
<path class="st7" d="M702,604c0,0-33.7,5.6-26,15.7c7.7,10.1,37.5-0.5,37.5-0.5L702,604z"/>
<path class="st10" d="M743.1,571.2c0.8,14.7,6.2,31.7,8.1,44c-10.7,10.1-20.9,19.1-24.8,19.2c-7.9,0.3-20.7-0.8-25.4,1
	s-7.5-28.3-7.5-28.3s2.8-9.6,15.3-14.9C717.4,588.7,733.6,579.1,743.1,571.2z"/>
<path class="st9" d="M762.5,456.6c0,0,26.9-4.2,25.4,40.4s2.8,73-8,81.4S734,624.7,726.1,625s-20.7-0.8-25.4,1s-7.5-28.3-7.5-28.3
	s2.8-9.6,15.3-14.9c12.5-5.3,42-23.9,41.8-30.2c-0.2-6.4-7.5-28.3-7.5-28.3S732.9,470.5,762.5,456.6z"/>
<path class="st7" d="M695.1,357.5c18.7,0,33.8,15.6,33.8,35c0,19.3-16.6,42.4-33.8,35c-10.6-4.6-26.7,9.8-26.3-9
	c0-0.6,0.6-0.9,0.6-1.6c0-0.6-1.9-1.1-2.2-1.7c-0.7-2.1-0.1-4.6-1.4-5.1c-2.8-1.1-11.4,1.7-9.7-2.8c3.7-9.3,5.4-12.8,5-15.2
	C656.3,362.2,676.4,357.5,695.1,357.5z"/>
<path class="st8" d="M672.9,342.3c-0.8,0.7-1.9,1.2-2.9,1.5c-1.1,0.2-2.2-0.5-2.4-1.7c-0.8,1.7-1.7,3.4-3.3,4.3s-4.2,0.1-4.4-1.7
	c-0.2,1.4-0.9,2.7-1.8,3.7c-1,1-2.8,1.2-3.7,0.1c0.7,3.9,0.3,7.9,0.5,11.9s1.3,8.2,4.3,10.8c4.4,3.8,10.9,2.9,16.7,2.1
	c0.9-0.2,1.8-0.1,2.6,0.1c2.2,0.9,2.1,3.9,2.1,6.3c0.4,8.5,6.8,15.5,15.2,16.5c2.3,0.4,4.6-0.2,6.5-1.6c1.6-1.4,2.5-3.6,4.3-4.7
	c3-1.7,6.7,0.8,9,3.5c2.2,2.7,5.4,10.5,8.8,11c4.6,0.6,7.1-8.5,8.8-12.8c4.7-12.1,4.4-25.6-1-37.5
	C722.6,333.5,690.1,330.2,672.9,342.3z"/>
<linearGradient id="SVGID_4_" gradientUnits="userSpaceOnUse" x1="1072.9779" y1="-818.118" x2="1072.9779" y2="-644.2227" gradientTransform="matrix(0.9905 0.1373 0.1373 -0.9905 -385.2501 -417.9975)">
	<stop  offset="0" style="stop-color:#808080;stop-opacity:0.25"/>
	<stop  offset="0.5351" style="stop-color:#808080;stop-opacity:0.12"/>
	<stop  offset="1" style="stop-color:#808080;stop-opacity:0.1"/>
</linearGradient>
<path class="st11" d="M641.1,436.5C636.5,470,567.6,540,567.6,540s-52.1-86.8-47.4-120.3c4.5-33.4,35.3-56.8,68.7-52.3
	s56.8,35.3,52.3,68.7C641.1,436.4,641.1,436.5,641.1,436.5z"/>
<path class="st12" d="M637.1,437.6c-4.4,31.4-69,97.1-69,97.1s-48.8-81.4-44.5-112.8c4.3-31.3,33.1-53.3,64.5-49s53.3,33.1,49,64.5
	C637.1,437.4,637.1,437.5,637.1,437.6L637.1,437.6z"/>
<ellipse transform="matrix(0.1373 -0.9905 0.9905 0.1373 79.9577 942.3351)" class="st2" cx="581" cy="425.3" rx="28.7" ry="28.6"/>
<ellipse class="st12" cx="358" cy="523" rx="17.5" ry="8.5"/>
<ellipse class="st12" cx="326" cy="532" rx="17.5" ry="8.5"/>
<ellipse class="st12" cx="376" cy="579" rx="17.5" ry="8.5"/>
<ellipse class="st12" cx="411" cy="579" rx="17.5" ry="8.5"/>
<g>
	<ellipse class="st12" cx="1028.1" cy="819.4" rx="16.3" ry="7.9"/>
	<ellipse class="st12" cx="998.3" cy="827.8" rx="16.3" ry="7.9"/>
	<ellipse class="st12" cx="1044.9" cy="871.6" rx="16.3" ry="7.9"/>
	<ellipse class="st12" cx="1077.5" cy="871.6" rx="16.3" ry="7.9"/>
	<ellipse class="st12" cx="1022.6" cy="841.7" rx="13.3" ry="6.5"/>
	<ellipse class="st12" cx="1046.9" cy="848.5" rx="13.3" ry="6.5"/>
	<ellipse class="st12" cx="1008.9" cy="884.3" rx="13.3" ry="6.5"/>
	<ellipse class="st12" cx="982.3" cy="884.3" rx="13.3" ry="6.5"/>
	<path class="st13" d="M1003.3,766.3c-8.1,0.5-15.2,5.5-18.4,12.9c-4.6,11.1,1.3,24.2,10.2,32.4s20.4,12.8,30.8,18.9
		c14,8.2,26.5,19.6,33.5,34.2c7,14.6,7.7,32.7-0.5,46.7c-7.6,13-21.5,20.7-34.7,27.9"/>
	<path class="st13" d="M1042.9,798.3c6.6,0.4,12.4,4.5,15.1,10.5c3.8,9.1-1.1,19.8-8.4,26.4s-16.6,10.4-25.1,15.4
		c-11.4,6.7-21.7,16-27.4,27.9s-6.3,26.7,0.4,38.1c6.2,10.6,17.6,16.9,28.4,22.8"/>
	<ellipse class="st12" cx="1015.1" cy="767.3" rx="16.3" ry="7.9"/>
	<ellipse class="st12" cx="1033.3" cy="799.1" rx="13.3" ry="6.5"/>
</g>
<path class="st13" d="M331.4,466c-8.7,0.5-16.4,5.9-19.8,13.9c-5,12,1.4,26,11,34.8c9.6,8.8,21.9,13.7,33,20.3
	c15,8.8,28.5,21,36,36.7c7.5,15.7,8.3,35.2-0.5,50.1c-8.2,13.9-23.1,22.3-37.3,29.9"/>
<ellipse class="st12" cx="344" cy="467" rx="17.5" ry="8.5"/>
<path class="st8" d="M665.6,410.5c0,0,12.4-1.1,16.3,2s13.6-14.1,13.6-14.1s3.9-2.1,4,1.8s-0.8,26.6-13.1,32.3
	c0,0-11.1,8.4-18.5-0.5c0,0-7.5-11.1,4.9-12.8c0,0,11.8-4.4-0.8-5.4l-6.4,0.6C665.6,414.4,663,413.3,665.6,410.5z"/>
<g>
	<rect x="827.7" y="418.4" class="st8" width="67.8" height="56.1"/>
	<polygon class="st14" points="944.1,888 950,910.4 934.4,912.8 927.1,889.4 	"/>
	<polygon class="st14" points="833.4,884.6 833.4,908.5 816.8,908.5 819.3,884.6 	"/>
	<path class="st8" d="M931.4,908.5c0,0,11.7-5.4,18.5,0c6.8,5.4,10.2,17.6,10.2,17.6s17.6,22.4-2.9,21.5s-21.5-3.4-21.5-6.8
		s1-7.3-2.4-8.8s-4.9-8.3-3.9-10.2C930.5,919.7,931.4,908.5,931.4,908.5z"/>
	<path class="st8" d="M836.3,904.6c0,0-16.1-10.3-19.5-2.2s-8.3,18.3-8.3,18.3s-13.7,21.5,3.4,21.9s20-2,21.5-6.3s0-7.8,2.9-7.8
		s4.4-6.3,2.9-9.3S836.3,904.6,836.3,904.6z"/>
	<path class="st14" d="M882.7,451.5c0,0-3.9,21.9,6.3,23.4c10.2,1.5,20.5,5.9,21,8.8c0.5,2.9-40,34.1-40,34.1l-24.9-7.8
		c0,0-24.9-6.3-23.9-11.2s2.9-11.7,2.9-11.7s28.3-5.9,28.8-14.6c0.5-8.8,3.9-22.9,3.9-22.9L882.7,451.5z"/>
	<path class="st10" d="M882.7,451.5c0,0-3.9,21.9,6.3,23.4c10.2,1.5,20.5,5.9,21,8.8c0.5,2.9-40,34.1-40,34.1l-24.9-7.8
		c0,0-24.9-6.3-23.9-11.2s2.9-11.7,2.9-11.7s28.3-5.9,28.8-14.6c0.5-8.8,3.9-22.9,3.9-22.9L882.7,451.5z"/>
	<path class="st8" d="M818.3,589c0,0,17.7,16.9,52.7,15.3c35.1-1.6,32.1,10.6,32.1,10.6l-1.5,19.5c0,0,18.5,81.4,16.1,124.4
		c0,0,1,20.5,7.8,31.7S951,884.6,948,890.9s-24.4,3.9-24.4,3.9s-20-75.6-29.7-92.7c-9.8-17.1-10.7-26.8-10.7-26.8L850,678.8
		l-4.4,41.9c0,0,0.5,33.2,0.5,36.1s-0.5,26.3-2.4,31.2c-2,4.9-9.3,82.9-4.9,96.1s-22.9,5.9-22.9,5.9s-8.3-84.9-5.9-101.4
		c2.4-16.6-3.9-46.3-3.9-46.3s-18.5-90.7-8.3-105.3c0,0,6.8-49.7,10.2-49.3L818.3,589z"/>
	<circle class="st14" cx="868.8" cy="435.2" r="26.8"/>
	<path class="st12" d="M800.3,604.6c0.5,1.5,6.3-1.6,11.9-5c5.4-3.2,10.5-6.8,10.5-6.8c5.9,18.5,42.9,11.2,42.9,11.2
		s0.1,0.1,0.3,0.4c1.2,1.7,6.5,8.6,12.9,13.3c7.3,5.4,24.4-7.3,24.4-7.3s26.5-63.6,29.9-97.2c0.7-7.4,0.4-13.4-1.6-16.9
		c-11.2-19.5-27-17-27-17c-2.6,6.9-23.7,17-23.7,17l-21,3.9c-21,3.9-27.3-18-27.3-18c-5.9-1-16.6,9.8-16.6,9.8
		c-10.2,2.9-15.6,37.1-15.6,37.1s1,1.3,2.6,3.3c0.9,1.1,2,2.5,3.2,4c0.4,0.5,0.8,1.1,1.3,1.6c5.4,7.1,12.2,16.3,13.9,20.3
		c2.9,6.8-2.9,17.1-9.8,16.6C804.6,574.4,799.3,601.7,800.3,604.6z"/>
	<path class="st14" d="M869,631c0,0-22.9,28.8-33.2,18.5c-10.2-10.2,29.7-34.1,29.7-34.1L869,631z"/>
	<path class="st14" d="M811,622.2c0,0,20,30.2,8.8,31.2c-11.2,1-24.9-20-24.9-20L811,622.2z"/>
	<path class="st8" d="M808.2,477.5c2.6-5.7,6-11,7.7-17c2-7.2,1.2-14.8,1-22.3c-0.2-6.6,0-13.3,1.7-19.7c1.6-6.4,4.8-12.5,9.7-16.9
		c12.6-11.2,35.6-12,50.9-7.4c6,1.8,12.5,5.3,14,11.5c0.2,0.9,0.3,1.9,0.6,2.8c1.3,4.6,5.9,7.5,7.6,11.9c2.2,5.7-1.2,12-1.6,18.1
		c-0.5,7.1,3,13.9,6.5,20.2c2.1,3.7,4.2,7.7,4,11.9c-0.2,2.3-0.9,4.6-2.1,6.6c-4.1,7.4-12.6,11.9-21.1,12.1
		c-2.8,0.1-5.6-0.3-7.9-1.9c-3.7-2.6-4.8-7.8-4.1-12.2s3.1-8.5,4.8-12.7c0.5-1.3,1-2.6,1.5-3.9c8-4.5,12.8-12.4,13.6-20.9
		c0.5-5.2-0.5-10.6-3.3-15.6c-7.2-12.9-23.6-17.6-36.5-10.3c-12.9,7.2-17.6,23.6-10.3,36.5c3.9,7.1,10.8,12,18.8,13.3
		c1.3,6.8,0.7,13.8-1.8,20.2c-2.1,5.3-5.3,10.1-8.5,14.8c-1.5,2.3-3.1,4.6-5.4,6c-1.4,0.9-3,1.5-4.6,2c-6.8,2.2-13.9,3.9-20.9,3
		c-7-1-14-5.2-16.4-11.9C803.9,489.7,805.6,483.2,808.2,477.5z"/>
	<ellipse class="st8" cx="866.8" cy="418.6" rx="29.3" ry="16.6"/>
	<path class="st10" d="M865.9,604.5c1.2,1.7,6.5,8.6,12.9,13.3c7.3,5.4,24.4-7.3,24.4-7.3s26.5-63.6,29.9-97.2
		c-1.9-5.6-4-11.1-6.5-16.4l5.6,22.7c0,0-25.1,20.2-30.5,28.5c-5.4,8.3-0.5,36.1,0,40.5c0.5,4.4-9.8,5.9-14.6,5.4
		c-4.9-0.5-5.9,3.9-10.2,3.9C874.7,597.8,870.1,601.1,865.9,604.5z"/>
	<path class="st12" d="M924.1,496.8h7.3c0,0,18,36.6,16.1,78c-2,41.5-21.9,58-44.9,63.4c-22.9,5.4-33.2,8.8-36.1,5.4
		c-2.9-3.4-4.4-31.7-4.4-31.7s15.1-14.1,19.5-14.1s5.4-4.4,10.2-3.9c4.9,0.5,15.1-1,14.6-5.4c-0.5-4.4-5.4-32.2,0-40.5
		C911.9,539.8,924.1,496.8,924.1,496.8z"/>
	<path class="st10" d="M802.9,532.3c0.9,1.1,2,2.5,3.2,4l-2.8-5.9C803.2,530.5,803.1,531.2,802.9,532.3z"/>
	<path class="st10" d="M800.3,604.6c0.5,1.5,6.3-1.6,11.9-5c-0.1-0.3-0.1-0.6-0.2-0.9c-1.5-5.9,8.8-20,8.8-20l6.8-18.5l-1.5-24.9
		l-18.8,2.6c5.4,7.1,12.2,16.3,13.9,20.3c2.9,6.8-2.9,17.1-9.8,16.6C804.6,574.4,799.3,601.7,800.3,604.6z"/>
	<path class="st12" d="M810,519.3l-9.8,9.8c0,0-6.8,39.5-6.8,41.9c0,2.4-11.7,18-8.8,28.8c2.9,10.7,4.9,24.9,2.4,27.8
		c-2.4,2.9-5.9,11.2,0,15.1c5.9,3.9,13.2-22.4,30.7-15.6c0,0-10.7-17.1-10.2-18.5c0.5-1.5,2.9-5.4,1.5-11.2c-1.5-5.9,8.8-20,8.8-20
		l6.8-18.5l-1.5-24.9L810,519.3z"/>
</g>
<path class="st10" d="M670.3,611.2c-4.8,4.5-11.4,13.7-6.5,27.1c0.2,0.4-0.4,0.7-0.7,0.4c-3.9-5.4-9.6-17.6,6.7-28.1
	C670.2,610.3,670.7,610.8,670.3,611.2z"/>
</svg>
