<?xml version="1.0" encoding="utf-8"?>
<!-- Generator: Adobe Illustrator 22.1.0, SVG Export Plug-In . SVG Version: 6.00 Build 0)  -->
<svg version="1.1" id="Camada_1" xmlns="http://www.w3.org/2000/svg" xmlns:xlink="http://www.w3.org/1999/xlink" x="0px" y="0px"
	 viewBox="0 0 160 59" style="enable-background:new 0 0 160 59;" xml:space="preserve">
<style type="text/css">
	.st0{fill:#C92C33;}
	.st1{fill:#72BC49;}
	.st2{enable-background:new    ;}
	.st3{fill:#333333;}
</style>
<g>
	<path class="st0" d="M151.3,46.3c0,0,3.4-5.2-1-15.4c0.9-2.2,4.3-8.8,4.3-8.8S161.7,28.9,151.3,46.3z"/>
	<path class="st1" d="M109.8,20.3c0,0-1.9,11.3,15.2,21.6c2.2,1.1,17.8,8.4,27.6-1.1c0,1.9-1.1,16.9-22.2,14.5
		c-2-0.1-15.6-1.7-23.7-17C106.1,37,102.6,28.6,109.8,20.3z"/>
	<path class="st0" d="M106.8,24.7c0,0,5.8-15,29.4-7c-0.7,1.4-2.2,5.2-2.2,5.2l17.1-4.3l-8.9-15.3l-2.3,4.4
		C139.8,7.9,115.2-4.2,106.8,24.7z"/>
</g>
<g class="st2">
	<path class="st3" d="M21.7,34.2v3.1H3.4V12.1h17.8v3.1H7V23h12.6v3.1H7v8.1H21.7z"/>
	<path class="st3" d="M25.1,26h9.7v3h-9.7C25.1,29,25.1,26,25.1,26z"/>
	<path class="st3" d="M58.3,24.6h3.5v9.8c-1.2,1-2.7,1.8-4.4,2.4c-1.7,0.6-3.4,0.8-5.2,0.8c-2.5,0-4.8-0.6-6.9-1.7s-3.6-2.7-4.8-4.6
		c-1.2-2-1.7-4.2-1.7-6.6s0.6-4.7,1.7-6.6c1.2-2,2.8-3.5,4.8-4.6c2.1-1.1,4.4-1.7,6.9-1.7c2,0,3.8,0.3,5.5,1s3,1.6,4.2,2.9L59.8,18
		c-2-1.9-4.5-2.9-7.3-2.9c-1.9,0-3.6,0.4-5.2,1.2c-1.5,0.8-2.7,2-3.6,3.5c-0.9,1.5-1.3,3.1-1.3,5c0,1.8,0.4,3.5,1.3,4.9
		c0.9,1.5,2.1,2.6,3.6,3.5c1.5,0.8,3.2,1.3,5.1,1.3c2.3,0,4.2-0.5,5.9-1.6V24.6z"/>
	<path class="st3" d="M68.7,12.1h3.6v25.2h-3.6V12.1z"/>
	<path class="st3" d="M96.7,37.3l-5.4-7.7c-0.7,0-1.2,0.1-1.6,0.1h-6.2v7.7h-3.6V12.1h9.8c3.3,0,5.8,0.8,7.7,2.3
		c1.9,1.6,2.8,3.7,2.8,6.4c0,1.9-0.5,3.6-1.4,5c-1,1.4-2.3,2.4-4.1,3l6,8.5C100.7,37.3,96.7,37.3,96.7,37.3z M94.8,25.1
		c1.2-1,1.8-2.4,1.8-4.2s-0.6-3.2-1.8-4.2c-1.2-1-2.9-1.5-5.2-1.5h-6.1v11.3h6.1C91.8,26.6,93.6,26.1,94.8,25.1z"/>
</g>
<g class="st2">
	<path class="st3" d="M8.8,52c0,0.7-0.1,1.3-0.4,1.8s-0.6,0.9-1,1.2s-0.9,0.4-1.5,0.4S4.8,55.3,4.4,55c-0.4-0.3-0.8-0.7-1-1.2
		S3,52.7,3,52v-0.5c0-0.7,0.1-1.3,0.4-1.8c0.2-0.5,0.6-0.9,1-1.2s0.9-0.4,1.5-0.4s1.1,0.1,1.5,0.4s0.8,0.7,1,1.2s0.4,1.1,0.4,1.8V52
		z M7.9,51.6c0-0.8-0.2-1.5-0.5-1.9C7,49.2,6.5,49,5.9,49s-1.1,0.2-1.4,0.7c-0.3,0.4-0.5,1-0.5,1.8V52c0,0.8,0.2,1.5,0.5,1.9
		c0.3,0.5,0.8,0.7,1.4,0.7s1.1-0.2,1.4-0.7c0.3-0.4,0.5-1.1,0.5-1.9L7.9,51.6L7.9,51.6z"/>
	<path class="st3" d="M12.5,52.2c-0.8-0.2-1.4-0.5-1.8-0.9c-0.4-0.3-0.5-0.8-0.5-1.2c0-0.6,0.2-1,0.7-1.4c0.4-0.4,1-0.5,1.7-0.5
		c0.5,0,0.9,0.1,1.3,0.3c0.4,0.2,0.7,0.4,0.9,0.8s0.3,0.7,0.3,1.1h-0.9c0-0.4-0.1-0.8-0.4-1c-0.3-0.2-0.7-0.4-1.2-0.4
		s-0.8,0.1-1.1,0.3s-0.4,0.5-0.4,0.8s0.1,0.5,0.4,0.7c0.2,0.2,0.7,0.4,1.3,0.6s1.1,0.3,1.4,0.6c0.3,0.2,0.6,0.4,0.7,0.7
		c0.2,0.3,0.2,0.6,0.2,0.9c0,0.6-0.2,1-0.7,1.4c-0.4,0.3-1,0.5-1.8,0.5c-0.5,0-0.9-0.1-1.4-0.3s-0.7-0.4-1-0.8
		c-0.2-0.3-0.3-0.7-0.3-1.1h0.9c0,0.4,0.2,0.8,0.5,1c0.3,0.3,0.7,0.4,1.3,0.4c0.5,0,0.9-0.1,1.1-0.3c0.3-0.2,0.4-0.5,0.4-0.8
		S14,53,13.7,52.8C13.6,52.6,13.1,52.4,12.5,52.2z"/>
	<path class="st3" d="M20.4,48.2l2.3,5.8l2.3-5.8h1.2v7.1h-0.9v-2.8l0.1-3l-2.3,5.8h-0.7l-2.3-5.7l0.1,3v2.8h-0.9v-7.1L20.4,48.2
		L20.4,48.2z"/>
	<path class="st3" d="M32.2,52.1h-3.1v2.5h3.6v0.8h-4.5v-7.1h4.5V49h-3.5v2.3h3.1L32.2,52.1L32.2,52.1z"/>
	<path class="st3" d="M35,54.6h3.4v0.8H34v-7.1h1V54.6z"/>
	<path class="st3" d="M45.1,55.4h-0.9v-3.3h-3.6v3.3h-0.9v-7.1h0.9v3.1h3.6v-3.1h0.9V55.4z"/>
	<path class="st3" d="M52.4,52c0,0.7-0.1,1.3-0.4,1.8s-0.6,0.9-1,1.2s-0.9,0.4-1.5,0.4S48.4,55.3,48,55c-0.4-0.3-0.8-0.7-1-1.2
		s-0.4-1.1-0.4-1.8v-0.5c0-0.7,0.1-1.3,0.4-1.8c0.2-0.5,0.6-0.9,1-1.2s0.9-0.4,1.5-0.4s1.1,0.1,1.5,0.4s0.8,0.7,1,1.2
		s0.4,1.1,0.4,1.8V52z M51.5,51.6c0-0.8-0.2-1.5-0.5-1.9c-0.3-0.5-0.8-0.7-1.4-0.7c-0.6,0-1.1,0.2-1.4,0.7c-0.3,0.4-0.5,1.1-0.5,1.9
		V52c0,0.8,0.2,1.5,0.5,1.9c0.3,0.5,0.8,0.7,1.4,0.7c0.6,0,1.1-0.2,1.4-0.7c0.3-0.4,0.5-1.1,0.5-1.9V51.6z"/>
	<path class="st3" d="M56.6,52.5h-1.7v2.9H54v-7.1h2.4c0.8,0,1.4,0.2,1.8,0.5c0.4,0.4,0.6,0.9,0.6,1.6c0,0.4-0.1,0.8-0.4,1.2
		c-0.2,0.3-0.6,0.6-1,0.7l1.7,3v0.1h-1L56.6,52.5z M54.9,51.7h1.4c0.5,0,0.8-0.1,1.1-0.4c0.3-0.2,0.4-0.6,0.4-1s-0.1-0.8-0.4-1
		s-0.5-0.3-1-0.3H55L54.9,51.7L54.9,51.7z"/>
	<path class="st3" d="M64.4,52.1h-3.1v2.5h3.6v0.8h-4.5v-7.1h4.5V49h-3.5v2.3h3.1L64.4,52.1L64.4,52.1z"/>
	<path class="st3" d="M68.3,52.2c-0.8-0.2-1.4-0.5-1.8-0.9C66.2,51,66,50.6,66,50.1c0-0.6,0.2-1,0.7-1.4c0.4-0.4,1-0.5,1.7-0.5
		c0.5,0,0.9,0.1,1.3,0.3s0.7,0.4,0.9,0.8s0.3,0.7,0.3,1.1H70c0-0.4-0.1-0.8-0.4-1S68.9,49,68.4,49s-0.8,0.1-1.1,0.3
		c-0.3,0.2-0.4,0.5-0.4,0.8s0.1,0.5,0.4,0.7c0.2,0.2,0.7,0.4,1.3,0.6s1.1,0.3,1.4,0.6c0.3,0.2,0.6,0.4,0.7,0.7
		c0.2,0.3,0.2,0.6,0.2,0.9c0,0.6-0.2,1-0.7,1.4c-0.4,0.3-1,0.5-1.8,0.5c-0.5,0-0.9-0.1-1.4-0.3s-0.7-0.4-1-0.8
		c-0.2-0.3-0.3-0.7-0.3-1.1h0.9c0,0.4,0.2,0.8,0.5,1c0.3,0.3,0.7,0.4,1.3,0.4c0.5,0,0.9-0.1,1.1-0.3c0.3-0.2,0.4-0.5,0.4-0.8
		s-0.1-0.6-0.4-0.8C69.4,52.6,69,52.4,68.3,52.2z"/>
	<path class="st3" d="M77.2,52.2c-0.8-0.2-1.4-0.5-1.8-0.9c-0.4-0.3-0.5-0.8-0.5-1.2c0-0.6,0.2-1,0.7-1.4c0.4-0.4,1-0.5,1.7-0.5
		c0.5,0,0.9,0.1,1.3,0.3s0.7,0.4,0.9,0.8s0.3,0.7,0.3,1.1h-0.9c0-0.4-0.1-0.8-0.4-1S77.8,49,77.3,49s-0.8,0.1-1.1,0.3
		c-0.3,0.2-0.4,0.5-0.4,0.8s0.1,0.5,0.4,0.7c0.2,0.2,0.7,0.4,1.3,0.6s1.1,0.3,1.4,0.6c0.3,0.2,0.6,0.4,0.7,0.7
		c0.2,0.3,0.2,0.6,0.2,0.9c0,0.6-0.2,1-0.7,1.4c-0.4,0.3-1,0.5-1.8,0.5c-0.5,0-0.9-0.1-1.4-0.3s-0.7-0.4-1-0.8
		c-0.2-0.3-0.3-0.7-0.3-1.1h0.9c0,0.4,0.2,0.8,0.5,1c0.3,0.3,0.7,0.4,1.3,0.4c0.5,0,0.9-0.1,1.1-0.3c0.3-0.2,0.4-0.5,0.4-0.8
		s-0.1-0.6-0.4-0.8C78.2,52.6,77.8,52.4,77.2,52.2z"/>
	<path class="st3" d="M82.2,46.3h1.1L82,47.7h-0.7L82.2,46.3z M82.2,55.4h-0.9v-7.1h0.9V55.4z"/>
	<path class="st3" d="M88.9,49h-2.3v6.3h-0.9V49h-2.3v-0.8h5.5C88.9,48.2,88.9,49,88.9,49z"/>
	<path class="st3" d="M91.1,55.4h-0.9v-7.1h0.9V55.4z"/>
	<path class="st3" d="M98.5,52c0,0.7-0.1,1.3-0.4,1.8s-0.6,0.9-1,1.2s-0.9,0.4-1.5,0.4s-1.1-0.1-1.5-0.4c-0.4-0.3-0.8-0.7-1-1.2
		s-0.4-1.1-0.4-1.8v-0.5c0-0.7,0.1-1.3,0.4-1.8c0.2-0.5,0.6-0.9,1-1.2s0.9-0.4,1.5-0.4s1.1,0.1,1.5,0.4c0.4,0.3,0.8,0.7,1,1.2
		s0.4,1.1,0.4,1.8V52z M97.6,51.6c0-0.8-0.2-1.5-0.5-1.9c-0.3-0.5-0.8-0.7-1.4-0.7s-1.1,0.2-1.4,0.7c-0.3,0.4-0.5,1.1-0.5,1.9V52
		c0,0.8,0.2,1.5,0.5,1.9c0.3,0.5,0.8,0.7,1.4,0.7s1.1-0.2,1.4-0.7c0.3-0.4,0.5-1.1,0.5-1.9V51.6z"/>
	<path class="st3" d="M102.2,52.2c-0.8-0.2-1.4-0.5-1.8-0.9c-0.4-0.3-0.5-0.8-0.5-1.2c0-0.6,0.2-1,0.7-1.4c0.4-0.4,1-0.5,1.7-0.5
		c0.5,0,0.9,0.1,1.3,0.3s0.7,0.4,0.9,0.8s0.3,0.7,0.3,1.1h-0.9c0-0.4-0.1-0.8-0.4-1s-0.7-0.4-1.2-0.4s-0.8,0.1-1.1,0.3
		c-0.3,0.2-0.4,0.5-0.4,0.8s0.1,0.5,0.4,0.7c0.2,0.2,0.7,0.4,1.3,0.6s1.1,0.3,1.4,0.6c0.3,0.2,0.6,0.4,0.7,0.7
		c0.2,0.3,0.2,0.6,0.2,0.9c0,0.6-0.2,1-0.7,1.4c-0.4,0.3-1,0.5-1.8,0.5c-0.5,0-0.9-0.1-1.4-0.3c-0.4-0.2-0.8-0.4-1-0.8
		c-0.2-0.3-0.3-0.7-0.3-1.1h0.9c0,0.4,0.2,0.8,0.5,1c0.3,0.3,0.7,0.4,1.3,0.4c0.5,0,0.9-0.1,1.1-0.3c0.3-0.2,0.4-0.5,0.4-0.8
		s-0.1-0.6-0.4-0.8C103.3,52.6,102.9,52.4,102.2,52.2z"/>
</g>
<g id="Layer_1">
</g>
</svg>
